<?xml version="1.0" standalone="no"?>
<!DOCTYPE svg PUBLIC "-//W3C//DTD SVG 20010904//EN"
 "http://www.w3.org/TR/2001/REC-SVG-20010904/DTD/svg10.dtd">
<svg version="1.0" xmlns="http://www.w3.org/2000/svg"
 width="600.000000pt" height="600.000000pt" viewBox="0 0 600.000000 600.000000"
 preserveAspectRatio="xMidYMid meet">
<metadata>
Created by potrace 1.11, written by Peter Selinger 2001-2013
</metadata>
<g transform="translate(0.000000,600.000000) scale(0.100000,-0.100000)"
fill="#000000" stroke="none">
<path d="M2730 5904 c-14 -2 -65 -9 -115 -15 -704 -86 -1385 -460 -1852 -1019
-345 -412 -563 -899 -650 -1450 -23 -147 -26 -662 -4 -805 53 -359 142 -642
298 -948 140 -274 306 -501 533 -727 458 -459 1007 -731 1675 -831 123 -19
647 -19 770 0 359 53 642 142 948 298 274 140 503 307 727 532 460 462 731
1008 831 1676 19 123 19 647 0 770 -82 552 -285 1025 -616 1440 -102 128 -322
348 -450 450 -349 279 -787 487 -1206 575 -220 46 -288 52 -579 55 -157 2
-296 1 -310 -1z m55 -1692 c108 -25 255 -70 255 -80 0 -8 -111 -416 -114 -419
-1 -1 -43 11 -94 27 -193 63 -414 76 -567 36 -262 -70 -463 -290 -531 -582
-26 -112 -24 -301 5 -409 73 -273 252 -457 521 -535 115 -34 346 -39 505 -11
66 11 129 23 141 26 19 6 23 -4 53 -135 28 -116 31 -144 20 -151 -21 -13 -225
-67 -319 -85 -131 -25 -448 -30 -590 -10 -142 21 -312 65 -433 113 -81 32
-101 45 -162 107 -164 165 -267 392 -305 666 -18 129 -16 380 3 481 101 523
521 894 1112 983 17 2 116 3 220 1 144 -3 212 -8 280 -23z m1135 -750 l0 -737
-27 -40 c-109 -164 -314 -367 -485 -484 l-48 -32 0 1016 0 1015 280 0 280 0 0
-738z"/>
</g>
</svg>
